<svg id="visual" viewBox="0 0 900 200" width="900" height="200" xmlns="http://www.w3.org/2000/svg" xmlns:xlink="http://www.w3.org/1999/xlink" version="1.1"><path d="M0 116L13.7 110.3C27.3 104.7 54.7 93.3 82 95.2C109.3 97 136.7 112 163.8 119C191 126 218 125 245.2 120.3C272.3 115.7 299.7 107.3 327 105.2C354.3 103 381.7 107 409 111.8C436.3 116.7 463.7 122.3 491 124C518.3 125.7 545.7 123.3 573 114.2C600.3 105 627.7 89 654.8 84.8C682 80.7 709 88.3 736.2 93.3C763.3 98.3 790.7 100.7 818 105.7C845.3 110.7 872.7 118.3 886.3 122.2L900 126L900 201L886.3 201C872.7 201 845.3 201 818 201C790.7 201 763.3 201 736.2 201C709 201 682 201 654.8 201C627.7 201 600.3 201 573 201C545.7 201 518.3 201 491 201C463.7 201 436.3 201 409 201C381.7 201 354.3 201 327 201C299.7 201 272.3 201 245.2 201C218 201 191 201 163.8 201C136.7 201 109.3 201 82 201C54.7 201 27.3 201 13.7 201L0 201Z" fill="#f8fafc" stroke-linecap="round" stroke-linejoin="miter"></path></svg>